<svg xmlns="http://www.w3.org/2000/svg" width="24" height="23" viewBox="0 0 24 23"><defs><style>.a{fill:#333;}</style></defs><g transform="translate(0 -1)"><path class="a" d="M17.5,11A6.5,6.5,0,1,0,24,17.5,6.508,6.508,0,0,0,17.5,11ZM20,18.5H18.5V20a1,1,0,0,1-2,0V18.5H15a1,1,0,0,1,0-2h1.5V15a1,1,0,0,1,2,0v1.5H20a1,1,0,0,1,0,2Z"/><path class="a" d="M23,8H1A1,1,0,0,1,1,6H23a1,1,0,0,1,0,2Z"/><path class="a" d="M12,8a1,1,0,0,1-.707-1.707l5-5a1,1,0,0,1,1.414,1.414l-5,5A1,1,0,0,1,12,8Z"/><path class="a" d="M7.749,22.75a1,1,0,0,1-.981-.813l-2-10.5a1,1,0,0,1,1.964-.374l2,10.5a1,1,0,0,1-.983,1.187Z"/><path class="a" d="M2,10a2.006,2.006,0,0,0-2,2,1.553,1.553,0,0,0,.03.31c0,.03.01.08.01.11l2,8.97A2,2,0,0,0,4,23h7.02a8.544,8.544,0,0,1-1.27-2.01L4,20.98,2,12l9.03-.01A8.407,8.407,0,0,1,13.51,10Z"/></g></svg>