<svg xmlns="http://www.w3.org/2000/svg" width="15.517" height="19.617" viewBox="0 0 15.517 19.617"><defs><style>.a{fill:#dc0009;}.b{fill:#ccc;}</style></defs><g transform="translate(-53.5)"><path class="a" d="M57.362,0H53.5V1.149h3.034L57.684,4.6h1.207Z"/><path class="a" d="M136.493,214.024a3.973,3.973,0,0,0-.337-1.6h0a3.431,3.431,0,0,1-.169-2.1c.023-.108.06-.211.088-.317h-7.213a4.147,4.147,0,0,1-.145,2.577,4,4,0,0,0,3.18,5.416v2.428h-2.874v1.149h6.9v-1.149h-2.874v-2.43A4,4,0,0,0,136.493,214.024Z" transform="translate(-72.073 -201.955)"/><path class="a" d="M107.752,122.3h2.057l-.77-2.3H106.9Z" transform="translate(-51.355 -115.402)"/><path class="a" d="M199.706,122.3l.851-2.3H194.2l.77,2.3Z" transform="translate(-135.309 -115.402)"/><path class="b" d="M262.651,30a4.017,4.017,0,0,0-3.619,2.3h5.525l-1.715,4.613a4.193,4.193,0,0,0-.149.544,2.761,2.761,0,0,0-.045.591h.009a4.023,4.023,0,0,0,4.017-4.025A4.028,4.028,0,0,0,262.651,30Z" transform="translate(-197.657 -28.851)"/></g></svg>