<svg xmlns="http://www.w3.org/2000/svg" width="20.897" height="13.061" viewBox="0 0 20.897 13.061"><defs><style>.a{fill:#ccc;}.b{fill:#dc0009;}</style></defs><g transform="translate(0 -96)"><g transform="translate(0 106.448)"><g transform="translate(0)"><path class="a" d="M20.833,352.206a.438.438,0,0,0-.371-.206H.436a.435.435,0,0,0-.389.63,3.565,3.565,0,0,0,3.207,1.983H17.644a3.57,3.57,0,0,0,3.208-1.982A.44.44,0,0,0,20.833,352.206Z" transform="translate(0 -352)"/></g></g><g transform="translate(1.795 96)"><g transform="translate(0 0)"><path class="b" d="M53.814,97.832a1.306,1.306,0,1,0-2.387,0,8.687,8.687,0,0,0-7.46,7.746H61.273A8.69,8.69,0,0,0,53.814,97.832Zm-1.6,2.521a6.08,6.08,0,0,0-5.342,4.051.436.436,0,0,1-.411.291.442.442,0,0,1-.145-.024.437.437,0,0,1-.266-.556,6.947,6.947,0,0,1,6.106-4.63.442.442,0,0,1,.463.406A.435.435,0,0,1,52.213,100.353Z" transform="translate(-43.966 -96)"/></g></g></g></svg>