<svg xmlns="http://www.w3.org/2000/svg" width="19.617" height="19.617" viewBox="0 0 19.617 19.617"><defs><style>.a{fill:#ccc;}.b{fill:#dc0009;}</style></defs><g transform="translate(0.001 0)"><path class="a" d="M24.259,159.818a1.725,1.725,0,0,1-.869-1.5,4.8,4.8,0,0,1,4.789-4.789h1.974L30.246,152H19.063l.8,13.253a.575.575,0,0,0,.574.54h3.526a2.859,2.859,0,0,1-.576-1.724,1.727,1.727,0,0,1,1.139-1.622,2.291,2.291,0,0,1,0-2.505C24.342,159.9,24.238,159.859,24.259,159.818Zm0,0" transform="translate(-18.334 -146.176)"/><path class="a" d="M6.32,4.675h5.748a.575.575,0,1,0,0-1.149H7.382L8.931,1.15h1.988a.575.575,0,0,0,0-1.149h-2.3a.574.574,0,0,0-.481.261L6.009,3.525H.573a.575.575,0,1,0,0,1.149H6.32Zm0,0"/><path class="b" d="M162,225.64a.575.575,0,0,0,.575.575h12.26a.575.575,0,0,0,.575-.575,3.644,3.644,0,0,0-3.64-3.64h-6.13A3.644,3.644,0,0,0,162,225.64Zm0,0" transform="translate(-155.794 -213.494)"/><path class="b" d="M183.149,362a1.149,1.149,0,0,0,0,2.3h9.578a1.149,1.149,0,1,0,0-2.3Zm0,0" transform="translate(-175.028 -348.13)"/><path class="b" d="M174.835,452h-12.26a.575.575,0,0,0-.575.575,1.726,1.726,0,0,0,1.724,1.724h9.962a1.726,1.726,0,0,0,1.724-1.724A.575.575,0,0,0,174.835,452Zm0,0" transform="translate(-155.794 -434.682)"/></g></svg>