<svg xmlns="http://www.w3.org/2000/svg" width="15.67" height="15.67" viewBox="0 0 15.67 15.67"><defs><style>.a{fill:#ccc;}.b{fill:#dc0009;}</style></defs><g transform="translate(-293.174 -275)"><path class="a" d="M16.232,8.383A7.835,7.835,0,0,1,3.48,14.5a.758.758,0,0,1-.058-1.125l.356-.356a.76.76,0,0,1,1.008-.063,5.813,5.813,0,1,0-.371-8.792l1.6,1.6a.505.505,0,0,1-.357.863H1.068a.505.505,0,0,1-.505-.505V1.53a.505.505,0,0,1,.863-.357l1.56,1.56a7.835,7.835,0,0,1,13.247,5.65Z" transform="translate(292.612 274.438)"/><path class="b" d="M10.517,10.872l.31-.4a.758.758,0,0,0-.133-1.064l-1.286-1v-3.3a.758.758,0,0,0-.758-.758H8.145a.758.758,0,0,0-.758.758V9.4L9.453,11a.758.758,0,0,0,1.064-.133Z" transform="translate(292.612 274.438)"/></g></svg>