<svg xmlns="http://www.w3.org/2000/svg" width="16" height="16" viewBox="0 0 16 16"><defs><style>.a{fill:#ccc;}.b{fill:#dc0009;}</style></defs><path class="a" d="M208.471,203.3a5.188,5.188,0,0,0-2.845-4.619,7.054,7.054,0,0,1-6.946,6.946,5.173,5.173,0,0,0,7.251,2.126l2.518.7-.7-2.518A5.153,5.153,0,0,0,208.471,203.3Zm0,0" transform="translate(-192.471 -192.471)"/><path class="b" d="M12.218,6.109A6.109,6.109,0,1,0,.847,9.214L.022,12.2,3,11.371a6.11,6.11,0,0,0,9.214-5.262ZM5.172,4.687H4.234a1.875,1.875,0,1,1,3.14,1.384l-.8.729v.731H5.64V6.387l1.1-1.008a.928.928,0,0,0,.305-.692.937.937,0,1,0-1.875,0ZM5.64,8.469h.937v.937H5.64Zm0,0"/></svg>