<svg xmlns="http://www.w3.org/2000/svg" xmlns:xlink="http://www.w3.org/1999/xlink" width="34.669" height="34.669" viewBox="0 0 34.669 34.669"><defs><style>.a{fill:url(#a);}.b,.e{fill:none;}.b{stroke:#fff;stroke-width:2px;}.c{fill:#f1f1f1;}.d{stroke:none;}</style><linearGradient id="a" x1="0.5" y1="1" x2="0.5" gradientUnits="objectBoundingBox"><stop offset="0" stop-color="#ffd600"/><stop offset="0.527" stop-color="#ff0095"/><stop offset="0.58" stop-color="#f2069c"/><stop offset="0.679" stop-color="#cf14b0"/><stop offset="0.813" stop-color="#962ccf"/><stop offset="0.975" stop-color="#494dfa"/><stop offset="0.995" stop-color="#3f51ff"/></linearGradient></defs><g transform="translate(-0.001 0.001)"><path class="a" d="M34.67,17.334A17.335,17.335,0,0,1,17.9,34.659q-.282.01-.567.009t-.567-.009a17.339,17.339,0,1,1,17.9-17.325Zm0,0" transform="translate(0 0)"/><g transform="translate(6.84 6.838)"><g class="b" transform="translate(-0.839 -0.839)"><rect class="d" width="22" height="22" rx="6"/><rect class="e" x="1" y="1" width="20" height="20" rx="5"/></g><path class="c" d="M140.684,127.871a5,5,0,1,0,5,5A5.006,5.006,0,0,0,140.684,127.871Zm0,8.26a3.26,3.26,0,1,1,3.26-3.26A3.264,3.264,0,0,1,140.684,136.131Zm0,0" transform="translate(-130.523 -122.71)"/><path class="c" d="M353.215,98.166a1.1,1.1,0,1,1-1.1-1.1A1.1,1.1,0,0,1,353.215,98.166Zm0,0" transform="translate(-335.854 -93.905)"/></g></g></svg>