<svg xmlns="http://www.w3.org/2000/svg" width="19.167" height="10.727" viewBox="0 0 19.167 10.727"><defs><style>.a{fill:#ccc;}.b{fill:#dc0009;}</style></defs><g transform="translate(0 -77.038)"><g transform="translate(0 77.038)"><g transform="translate(0 0)"><path class="a" d="M31.951,222.974h0a4.289,4.289,0,0,1-.448-.026.15.15,0,0,0-.153.056,2.751,2.751,0,0,1-2.453,1.564H18.454a2.782,2.782,0,0,1-2.462-1.581.115.115,0,0,0-.116-.042,4.376,4.376,0,0,1-.475.029c-.1,0-.19,0-.278-.013s-.214,0-.214.07a3.2,3.2,0,0,0,3.041,2.646H29.4a3.239,3.239,0,0,0,3.074-2.652c.016-.089-.068-.087-.117-.08A2.724,2.724,0,0,1,31.951,222.974Z" transform="translate(-14.092 -214.949)"/><path class="b" d="M3.484,102.41c-.048-.084-.128-.045-.174-.021C1.283,103.454,0,105.026,0,106.78c0,2.245,2.1,1.348,5.178.607a.121.121,0,0,0,.085-.165Z" transform="translate(0 -100.971)"/><path class="b" d="M189.025,77.589v5.628a.075.075,0,0,0,.078.085,20.011,20.011,0,0,1,3.34.528c.047.011.139.026.179-.052l2.131-4.639a.125.125,0,0,0-.058-.166,13.151,13.151,0,0,0-5.541-1.482C189.111,77.489,189.025,77.491,189.025,77.589Z" transform="translate(-178.671 -77.466)"/><path class="b" d="M80.973,77.147c0-.091-.111-.109-.136-.109a14.234,14.234,0,0,0-5.281.993.135.135,0,0,0-.083.17l1.841,4.982a.125.125,0,0,0,.16.055,17.249,17.249,0,0,1,3.409-.393c.022,0,.091,0,.091-.061V77.147Z" transform="translate(-71.331 -77.038)"/><path class="b" d="M269.224,113.73c-.583,1.09-2.039,4.437-2.039,4.437-.022.05.03.072.058.079,2.685.686,4.468,1.284,4.468-.784a4.768,4.768,0,0,0-2.316-3.786A.122.122,0,0,0,269.224,113.73Z" transform="translate(-252.544 -111.654)"/></g></g></g></svg>