<svg xmlns="http://www.w3.org/2000/svg" width="31.331" height="31.331" viewBox="0 0 31.331 31.331"><defs><style>.a{fill:#fff;stroke:#fff;stroke-width:2px;}.b{fill:#d80027;}.c{fill:#0052b4;}</style></defs><g transform="translate(0.316 0.5)"><circle class="a" cx="14.665" cy="14.665" r="14.665" transform="translate(0.684 0.5)"/><g transform="translate(1.103 0.919)"><g transform="translate(0.496)"><path class="b" d="M8.819,322.783a14.413,14.413,0,0,0,5.139,7.669v-7.669Z" transform="translate(-8.819 -304.934)"/><path class="b" d="M233.739,333.372c.413.036.83.055,1.252.055a14.406,14.406,0,0,0,13.9-10.644H233.739Z" transform="translate(-221.396 -304.934)"/><path class="b" d="M248.9,10.644A14.406,14.406,0,0,0,234.991,0c-.422,0-.839.019-1.252.055V10.644Z" transform="translate(-221.396)"/><path class="b" d="M13.958,52.895a14.413,14.413,0,0,0-5.139,7.669h5.139Z" transform="translate(-8.819 -49.919)"/></g><path class="c" d="M28.372,18.131H11.149V6.085A14.152,14.152,0,0,0,7.433,7.478V18.131H.121a14.37,14.37,0,0,0,0,3.715H7.433V32.5a14.152,14.152,0,0,0,3.716,1.393V21.847H28.372a14.37,14.37,0,0,0,0-3.715Z" transform="translate(0 -5.743)"/></g></g></svg>