<svg xmlns="http://www.w3.org/2000/svg" width="35.958" height="30.3" viewBox="0 0 35.958 30.3"><defs><style>.a{fill:#fff;}</style></defs><g transform="translate(0 -40.283)"><path class="a" d="M35.425,50.451a2.485,2.485,0,0,0-1.955-.937H26.545l-3.755-8.6a1.053,1.053,0,1,0-1.931.843l3.387,7.755H11.713L15.1,41.758a1.053,1.053,0,1,0-1.931-.843l-3.755,8.6H2.488a2.485,2.485,0,0,0-1.955.937,2.426,2.426,0,0,0-.472,2.063l3.7,16.153a2.468,2.468,0,0,0,2.426,1.916H29.772A2.468,2.468,0,0,0,32.2,68.667l3.7-16.153a2.426,2.426,0,0,0-.472-2.063ZM29.772,68.476H6.186a.377.377,0,0,1-.373-.279l-3.7-16.153a.322.322,0,0,1,.066-.28.383.383,0,0,1,.307-.144H8.493l-.276.632a1.053,1.053,0,1,0,1.931.843l.644-1.475H25.166L25.81,53.1a1.053,1.053,0,0,0,1.931-.843l-.276-.632H33.47a.383.383,0,0,1,.307.144.322.322,0,0,1,.066.28L30.145,68.2a.377.377,0,0,1-.373.279Z"/><path class="a" d="M152.053,266.717A1.054,1.054,0,0,0,151,267.77V275.5a1.053,1.053,0,0,0,2.107,0V267.77A1.053,1.053,0,0,0,152.053,266.717Z" transform="translate(-140.395 -210.531)"/><path class="a" d="M242.053,266.717A1.054,1.054,0,0,0,241,267.77V275.5a1.053,1.053,0,0,0,2.107,0V267.77A1.054,1.054,0,0,0,242.053,266.717Z" transform="translate(-224.074 -210.531)"/><path class="a" d="M332.053,266.717A1.054,1.054,0,0,0,331,267.77V275.5a1.053,1.053,0,0,0,2.107,0V267.77A1.054,1.054,0,0,0,332.053,266.717Z" transform="translate(-307.753 -210.531)"/></g></svg>