<svg xmlns="http://www.w3.org/2000/svg" width="19.167" height="18.701" viewBox="0 0 19.167 18.701"><defs><style>.a{fill:#ccc;}.b{fill:#dc0009;}</style></defs><g transform="translate(0 -3.46)"><path class="a" d="M59.848,9.63l4.59,5.463a.546.546,0,0,1,.292-.223L58.868,4.012A1.046,1.046,0,0,0,57.025,5Z" transform="translate(-53.065 0)"/><path class="b" d="M125.766,222.7l-.049-.011-.07-.014-.072-.014a7.686,7.686,0,0,0-1.594-.168h-.113a11.694,11.694,0,0,0-1.853.169c.349.4.864,1.038.172,1.644-.011.01-.022.016-.033.025a.9.9,0,0,1-.573.229.937.937,0,0,1-.576-.221,3.38,3.38,0,0,1-.455-.457l-.567-.611a8.244,8.244,0,0,0-1,.523c-.232.144-.463.292-.693.439-.295.189-.6.385-.907.57-.184.111-.37.217-.556.323-.158.09-.317.18-.482.279a4.466,4.466,0,0,1-.685.354,1.163,1.163,0,0,0,.106.183,1.243,1.243,0,0,0,.519.4,1.638,1.638,0,0,0,.433.078,6.822,6.822,0,0,0,2.16-.4,21.914,21.914,0,0,1,2.563-.592c1.459-.213,3.234-.274,3.251-.276h.011a1.11,1.11,0,0,0,.507-.229,1.376,1.376,0,0,0,.437-.7,5.591,5.591,0,0,0,.131-.759,6.31,6.31,0,0,0,.016-.765Z" transform="translate(-107.869 -204.269)"/><path class="b" d="M180.73,176.469a1.621,1.621,0,0,0-.1-.212,6.244,6.244,0,0,0-.913-1.316c-.086-.094-.147-.139-.183-.139s-.047.088.012.255c.038.107.069.207.094.3.041.152.048.228.027.228s-.062-.067-.121-.2a5.776,5.776,0,0,0-.437-.81,2.613,2.613,0,0,0-.792-.734c-.14-.076-.281-.144-.421-.2a.514.514,0,0,0-.186-.051c-.109,0-.1.1.029.276a5.31,5.31,0,0,1,.65,1.164c.061.149.076.225.052.225s-.072-.06-.148-.182a6.133,6.133,0,0,0-1.28-1.492,2.106,2.106,0,0,0-.99-.4c-.127-.011-.251-.017-.37-.02h-.031c-.274,0-.281.108-.032.263a3.436,3.436,0,0,1,1.348,1.535c.066.15.077.227.046.227s-.085-.057-.165-.172a4.661,4.661,0,0,0-1.868-1.577,1.843,1.843,0,0,0-.687-.165.458.458,0,0,0-.086.007c-.164.032-.257.057-.257.057-.168.034-.331.073-.49.115l-.023.007c-.241.071-.207.179.069.28.037.014.071.031.106.046a3.676,3.676,0,0,1,1.669,1.4c.091.139.118.211.09.211s-.084-.049-.178-.151a4.507,4.507,0,0,0-1.343-1.014c-.081-.04-.162-.076-.243-.11l.514.611,1.353,1.611a11.816,11.816,0,0,1,2.116-.213h.118a8,8,0,0,1,1.67.177c.049.01.1.018.148.03s.438.1.77.184a1.386,1.386,0,0,0,.328.053c.1,0,.159-.031.133-.1Z" transform="translate(-161.57 -158.261)"/><path d="M140.218,192.259l-.207-.223c-.119.111-.049.2.2.222Z" transform="translate(-130.521 -175.865)"/><path class="b" d="M86.567,202.1a5.148,5.148,0,0,0-.671-.043,6.446,6.446,0,0,0-1.653.228c-.2.054-.393.113-.568.175a1.837,1.837,0,0,0-.778.622c-.154.228-.049.433.246.505a4.835,4.835,0,0,0,1.17.213,2.006,2.006,0,0,0,.231-.013,1.467,1.467,0,0,0,.352-.092,4.125,4.125,0,0,0,.653-.339c.34-.2.689-.391,1.028-.6.539-.325,1.062-.676,1.6-1.007a8.465,8.465,0,0,1,.929-.492l-1.839-1.987a4.267,4.267,0,0,0-.78-.087H86.47a1.771,1.771,0,0,0-.97.369c-.161.135-.311.273-.451.409-.19.184-.16.3.05.3a.789.789,0,0,0,.106-.007,3.941,3.941,0,0,1,.51-.033,3.721,3.721,0,0,1,2.4.876l.058.05c.017.015.02.022.011.022a.154.154,0,0,1-.05-.019l-.1-.046a5.149,5.149,0,0,0-2.255-.551,4.347,4.347,0,0,0-.982.111,1.689,1.689,0,0,0-.854.6c-.1.142-.181.274-.251.389-.133.221-.107.368.033.368a.306.306,0,0,0,.087-.015q.2-.061.391-.1a4.876,4.876,0,0,1,1.038-.113,4.534,4.534,0,0,1,1.355.2c.222.07.263.116.134.116A1.194,1.194,0,0,1,86.567,202.1Z" transform="translate(-77.244 -182.531)"/><path class="a" d="M9.683,22.551l.128.138.48.518.384.414,1.535,1.657.075.081.057.061.116.125.017.018.474.511c.265.3.5.561.766.561a.559.559,0,0,0,.368-.164.779.779,0,0,0,.129-.141c.23-.33-.04-.654-.373-1.035l-.1-.114-.022-.026-.109-.131-.131-.156-.1-.123-2.014-2.4-.174-.208-.164-.2L8.036,18.389l-6.2-7.382A1.046,1.046,0,0,0,.259,12.384l9.3,10.029Z" transform="translate(0 -6.706)"/></g></svg>