<svg xmlns="http://www.w3.org/2000/svg" width="16.854" height="13.864" viewBox="0 0 16.854 13.864"><defs><style>.a{fill:#ccc;}.b{fill:#c8161d;}</style></defs><g transform="translate(0 -0.5)"><path class="a" d="M233.2,340.105a.247.247,0,0,0-.247.247v.41a.247.247,0,0,0,.494,0v-.41A.247.247,0,0,0,233.2,340.105Zm0,0" transform="translate(-225.281 -328.426)"/><path class="a" d="M138.376,340.105a.247.247,0,0,0-.247.247v.41a.247.247,0,0,0,.494,0v-.41A.247.247,0,0,0,138.376,340.105Zm0,0" transform="translate(-133.582 -328.426)"/><path class="a" d="M175.279,349.22a.252.252,0,0,0-.342.071.2.2,0,0,1-.169.091.2.2,0,0,1-.169-.091.247.247,0,0,0-.413.271.7.7,0,0,0,1.163,0A.247.247,0,0,0,175.279,349.22Zm0,0" transform="translate(-168.414 -337.202)"/><path class="a" d="M142.284,219.962a.247.247,0,1,0,.231-.436c-.182-.1-.291-.217-.291-.322s.109-.226.291-.323a2.191,2.191,0,0,1,1.808,0c.182.1.291.217.291.323s-.109.226-.291.322a2,2,0,0,1-.9.2.247.247,0,1,0,0,.494c.963,0,1.689-.435,1.689-1.012s-.726-1.012-1.689-1.012-1.689.435-1.689,1.012A.891.891,0,0,0,142.284,219.962Zm0,0" transform="translate(-137.065 -210.526)"/><path class="b" d="M15.879,5.711A6.911,6.911,0,0,0,10.946,4.6l1.431-1.1a.852.852,0,0,0-.993-1.384l-.843.562.582-.829A.852.852,0,0,0,9.763.817L5.58,5.977,4.5,6.7A3.384,3.384,0,0,0,2.974,7.713L.58,9.307a1.3,1.3,0,0,0-.336,1.841,1.272,1.272,0,0,0,1.054.543,1.294,1.294,0,0,0,.518,1.067,1.256,1.256,0,0,0,1.108.222,2.61,2.61,0,0,0,.85.755,5.191,5.191,0,0,0,2.581.629,5.192,5.192,0,0,0,2.581-.629,2.412,2.412,0,0,0,.977-.971,1.173,1.173,0,0,0,1.166-.169.142.142,0,0,1,.176,0,1.262,1.262,0,0,0,1.487,0,.147.147,0,0,1,.176,0,1.263,1.263,0,0,0,1.9-.506.148.148,0,0,1,.13-.089,1.262,1.262,0,0,0,1.2-1.448.153.153,0,0,1,.062-.145,1.254,1.254,0,0,0,.5-1,1.232,1.232,0,0,0-.2-.673,2.232,2.232,0,0,0-.638-3.024Zm-3.795-.7a3.168,3.168,0,0,1,.257,1.576.349.349,0,0,1-.378.315.356.356,0,0,1-.314-.382,2.509,2.509,0,0,0-.333-1.474c.226-.024.74-.036.769-.036Zm-1.306.116a2.007,2.007,0,0,1,.378,1.355.782.782,0,0,0,.839.916.843.843,0,0,0,.838-.765,3.667,3.667,0,0,0-.2-1.591,6.377,6.377,0,0,1,1.069.2,2.023,2.023,0,0,1,.03,1.33.835.835,0,0,0,.535,1.061A.807.807,0,0,0,15.326,7.1c.027-.082.052-.165.073-.247a.247.247,0,1,0-.478-.123c-.018.072-.04.144-.063.215a.349.349,0,0,1-.44.221.356.356,0,0,1-.22-.443,2.537,2.537,0,0,0,.066-1.294,6.42,6.42,0,0,1,1.338.7,1.738,1.738,0,0,1,.46,2.412,1.819,1.819,0,0,1-2.415.458,2.961,2.961,0,0,0-3.3,0,1.744,1.744,0,0,1-.273.152V8.678a1.546,1.546,0,0,0-.237-.813.843.843,0,0,0,.648-.98,3.671,3.671,0,0,0-.623-1.453,8.432,8.432,0,0,1,.914-.3Zm-1.421.452A3.172,3.172,0,0,1,10,6.978a.349.349,0,0,1-.277.407.356.356,0,0,1-.408-.28,2.549,2.549,0,0,0-.6-1.191,6.423,6.423,0,0,1,.638-.333ZM8.3,6.19a2.032,2.032,0,0,1,.457.741,4.469,4.469,0,0,0-.839-.325A1.724,1.724,0,0,1,8.3,6.19Zm1.845-5.062a.359.359,0,0,1,.572.432L9.407,3.427,6.962,5.056Zm1.511,1.394a.359.359,0,0,1,.418.582L9.758,4.891a6.905,6.905,0,0,0-1.638.82,2.221,2.221,0,0,0-.706.779A7.434,7.434,0,0,0,5.8,6.424ZM4.023,7.454a4.7,4.7,0,0,1,2.332-.561,4.7,4.7,0,0,1,2.332.561,1.518,1.518,0,0,1,.9,1.224,1.519,1.519,0,0,1-.9,1.224,4.7,4.7,0,0,1-2.332.561A4.7,4.7,0,0,1,4.023,9.9a1.519,1.519,0,0,1-.9-1.224,1.519,1.519,0,0,1,.9-1.224ZM.646,10.86A.849.849,0,0,1,.854,9.718L2.641,8.527c-.005.05-.008,1.855-.008,1.855l-.839.647A.817.817,0,0,1,.646,10.86Zm1.157.731c.1-.043.831-.585.831-.585v1.079a1.481,1.481,0,0,0,.066.436A.764.764,0,0,1,1.8,11.591Zm6.884,1.717a4.7,4.7,0,0,1-2.332.561,4.7,4.7,0,0,1-2.332-.561,1.519,1.519,0,0,1-.9-1.224V9.824a2.879,2.879,0,0,0,.646.5,5.191,5.191,0,0,0,2.581.629,5.192,5.192,0,0,0,2.581-.629,2.873,2.873,0,0,0,.646-.5v2.261a1.518,1.518,0,0,1-.9,1.224Zm7.226-3.3a.676.676,0,0,0-.253.612.768.768,0,0,1-.732.881.639.639,0,0,0-.562.381.77.77,0,0,1-.7.456.762.762,0,0,1-.452-.147.641.641,0,0,0-.759,0,.768.768,0,0,1-.9,0,.653.653,0,0,0-.759,0,.817.817,0,0,1-.727.1c.01-.069.015-2.621.015-2.621a2.229,2.229,0,0,0,.551-.272,2.468,2.468,0,0,1,2.749,0,2.255,2.255,0,0,0,2.8-.259.712.712,0,0,1-.258.87Zm0,0" transform="translate(0 0)"/></g></svg>