<svg xmlns="http://www.w3.org/2000/svg" width="33.668" height="33.668" viewBox="0 0 33.668 33.668"><path d="M16.834,0A16.834,16.834,0,1,0,33.668,16.834,16.836,16.836,0,0,0,16.834,0Zm8.445,12.88V15.16a7.954,7.954,0,0,1-4.867-1.654l.016,7.016A5.877,5.877,0,0,1,18.665,24.7a6,6,0,0,1-3.352,1.676,6.178,6.178,0,0,1-.905.067,6.02,6.02,0,0,1-3.69-1.247,6.121,6.121,0,0,1-.567-.5,5.9,5.9,0,0,1-.266-8.134,6.019,6.019,0,0,1,4.523-2.023,6.178,6.178,0,0,1,.905.067V17.8a2.838,2.838,0,1,0,1.952,2.7l0-4.7V7.222h3.139a4.859,4.859,0,0,0,4.862,4.814h.009v.846Z"/></svg>