<svg xmlns="http://www.w3.org/2000/svg" width="33.612" height="33.612" viewBox="0 0 33.612 33.612"><defs><style>.a{fill:#55acee;}.b{fill:#f1f2f2;}</style></defs><g transform="translate(-0.001 0)"><circle class="a" cx="16.806" cy="16.806" r="16.806" transform="translate(0.001 0)"/><g transform="translate(7.521 10.194)"><path class="b" d="M44.683,35.912a8.015,8.015,0,0,1-2.307.632,4.028,4.028,0,0,0,1.767-2.222,8.042,8.042,0,0,1-2.551.975,4.02,4.02,0,0,0-6.845,3.664,11.4,11.4,0,0,1-8.28-4.2,4.021,4.021,0,0,0,1.243,5.363,3.989,3.989,0,0,1-1.819-.5c0,.017,0,.034,0,.051a4.019,4.019,0,0,0,3.223,3.939,4.033,4.033,0,0,1-1.814.07,4.021,4.021,0,0,0,3.753,2.79A8.109,8.109,0,0,1,25.1,48.135,11.424,11.424,0,0,0,42.69,38.51c0-.174,0-.348-.012-.519a8.146,8.146,0,0,0,2-2.079Z" transform="translate(-25.103 -34.028)"/></g></g></svg>