<svg xmlns="http://www.w3.org/2000/svg" width="33.612" height="33.612" viewBox="0 0 33.612 33.612"><defs><style>.a{fill:#c4302b;}.b{fill:#fff;}</style></defs><path class="a" d="M16.806,0A16.806,16.806,0,1,1,0,16.806,16.806,16.806,0,0,1,16.806,0Z"/><path class="b" d="M72.8,62.016a1.979,1.979,0,0,0,1.252-.41,1.2,1.2,0,0,0,.454-.993V58.066a1.119,1.119,0,0,0-.462-.923,1.9,1.9,0,0,0-1.191-.357,2.135,2.135,0,0,0-1.269.338,1.067,1.067,0,0,0-.473.913v2.557a1.221,1.221,0,0,0,.46,1A1.913,1.913,0,0,0,72.8,62.016Zm-.556-3.856a.272.272,0,0,1,.15-.236.758.758,0,0,1,.391-.089.856.856,0,0,1,.421.089.269.269,0,0,1,.16.236v2.422a.32.32,0,0,1-.158.283.776.776,0,0,1-.423.1.674.674,0,0,1-.4-.1.329.329,0,0,1-.14-.284Zm4.072,3.853a1.311,1.311,0,0,0,.575-.214,2.15,2.15,0,0,0,.572-.477v.566h.993v-5.11h-.993v3.879a1.408,1.408,0,0,1-.306.274.564.564,0,0,1-.277.108.232.232,0,0,1-.2-.082.425.425,0,0,1-.065-.261V56.779h-.991v4.27a1.126,1.126,0,0,0,.174.684A.651.651,0,0,0,76.314,62.013ZM79.2,64.125h-12a3.387,3.387,0,0,0-3.453,3.317v2.8a3.387,3.387,0,0,0,3.453,3.318h12a3.388,3.388,0,0,0,3.453-3.318v-2.8A3.388,3.388,0,0,0,79.2,64.125ZM68.99,66.972H67.929v4.393H66.9V66.972H65.842v-.749H68.99S68.99,66.972,68.99,66.972Zm3.166,4.454H71.05V70.97a2.362,2.362,0,0,1-.64.383,1.678,1.678,0,0,1-.642.133.8.8,0,0,1-.578-.187A.735.735,0,0,1,69,70.745V67.277H70.1v3.182a.288.288,0,0,0,.067.212.327.327,0,0,0,.228.065.763.763,0,0,0,.309-.087,1.418,1.418,0,0,0,.343-.223v-3.15h1.106S72.156,71.425,72.156,71.425Zm4.187-.79a.775.775,0,0,1-.257.625,1.11,1.11,0,0,1-.742.217,1.8,1.8,0,0,1-.572-.083,1.44,1.44,0,0,1-.467-.261v.294H73.2V66.223h1.1V67.9a1.8,1.8,0,0,1,.468-.267,1.438,1.438,0,0,1,.5-.091,1.148,1.148,0,0,1,.791.244.914.914,0,0,1,.275.718Zm4.208-1.171H78.513v.75a.681.681,0,0,0,.1.436.462.462,0,0,0,.361.121.53.53,0,0,0,.372-.1.674.674,0,0,0,.107-.455v-.181h1.1v.2a1.084,1.084,0,0,1-.4.921,1.941,1.941,0,0,1-1.2.309,1.763,1.763,0,0,1-1.128-.328,1.09,1.09,0,0,1-.412-.9V68.45a1,1,0,0,1,.454-.844,1.948,1.948,0,0,1,1.166-.325,1.822,1.822,0,0,1,1.125.3,1.027,1.027,0,0,1,.392.867S80.55,69.464,80.55,69.464ZM68.4,62.028h1.253V58.974l1.459-4.306H69.834l-.775,2.943h-.08l-.813-2.943H66.9L68.4,59.112S68.4,62.028,68.4,62.028Zm6.365,6.124-.232.038-.226.117V70.7a.962.962,0,0,0,.259.135l.264.041a.437.437,0,0,0,.3-.082.332.332,0,0,0,.094-.263V68.546a.364.364,0,0,0-.114-.3A.518.518,0,0,0,74.761,68.151Z" transform="translate(-56.397 -48.361)"/><path class="b" d="M192.582,170.021a.505.505,0,0,0-.366.109.481.481,0,0,0-.109.357v.4h.942v-.4a.4.4,0,0,0-.467-.466Z" transform="translate(-169.942 -150.404)"/></svg>